<?xml version="1.0" encoding="UTF-8" standalone="no"?>
<svg
   xmlns:dc="http://purl.org/dc/elements/1.1/"
   xmlns:cc="http://creativecommons.org/ns#"
   xmlns:rdf="http://www.w3.org/1999/02/22-rdf-syntax-ns#"
   xmlns:svg="http://www.w3.org/2000/svg"
   xmlns="http://www.w3.org/2000/svg"
   xmlns:xlink="http://www.w3.org/1999/xlink"
   xmlns:sodipodi="http://sodipodi.sourceforge.net/DTD/sodipodi-0.dtd"
   xmlns:inkscape="http://www.inkscape.org/namespaces/inkscape"
   sodipodi:docname="noteP3.svg"
   inkscape:version="1.0 (4035a4fb49, 2020-05-01)"
   id="svg8"
   version="1.1"
   viewBox="0 0 85.561234 92.007637"
   height="92.007637mm"
   width="85.561234mm">
  <defs
     id="defs2">
    <linearGradient
       id="linearGradient44"
       inkscape:collect="always">
      <stop
         id="stop40"
         offset="0"
         style="stop-color:#f15f62;stop-opacity:1" />
      <stop
         id="stop42"
         offset="1"
         style="stop-color:#f6916a;stop-opacity:1" />
    </linearGradient>
    <linearGradient
       gradientUnits="userSpaceOnUse"
       y2="89.476303"
       x2="154.02219"
       y1="107.91798"
       x1="66.93647"
       id="linearGradient46"
       xlink:href="#linearGradient44"
       inkscape:collect="always" />
  </defs>
  <sodipodi:namedview
     inkscape:window-maximized="0"
     inkscape:window-y="0"
     inkscape:window-x="52"
     inkscape:window-height="1040"
     inkscape:window-width="1577"
     fit-margin-bottom="0"
     fit-margin-right="0"
     fit-margin-left="0"
     fit-margin-top="0"
     showgrid="false"
     inkscape:document-rotation="0"
     inkscape:current-layer="layer1"
     inkscape:document-units="mm"
     inkscape:cy="453.21159"
     inkscape:cx="-162.55366"
     inkscape:zoom="0.77473959"
     inkscape:pageshadow="2"
     inkscape:pageopacity="0.0"
     borderopacity="1.0"
     bordercolor="#666666"
     pagecolor="#ffffff"
     id="base" />
  <metadata
     id="metadata5">
    <rdf:RDF>
      <cc:Work
         rdf:about="">
        <dc:format>image/svg+xml</dc:format>
        <dc:type
           rdf:resource="http://purl.org/dc/dcmitype/StillImage" />
        <dc:title></dc:title>
      </cc:Work>
    </rdf:RDF>
  </metadata>
  <g
     transform="translate(-67.577441,-21.828837)"
     id="layer1"
     inkscape:groupmode="layer"
     inkscape:label="Calque 1">
    <path
       id="path24"
       d="m 75.746429,113.57211 c -0.436562,-0.1383 -1.210469,-0.38244 -1.719791,-0.54254 -1.991612,-0.62603 -4.158617,-2.31559 -5.329144,-4.155 -1.099946,-1.7285 -1.11756,-1.79356 -1.120026,-4.13737 -0.002,-1.93025 0.104726,-2.58169 0.56367,-3.43958 1.046189,-1.955609 2.039615,-3.220619 3.591715,-4.573609 2.133751,-1.86003 4.39201,-2.89342 8.776076,-4.01599 1.548086,-0.39639 4.068493,-0.33366 5.667047,0.14106 2.453804,0.7287 2.231474,3.58738 2.111888,-27.15414 -0.09342,-24.01611 -0.05886,-27.28393 0.290856,-27.50359 0.218282,-0.1371 1.349375,-0.61856 2.513542,-1.06991 1.164167,-0.45134 3.069167,-1.2153 4.233333,-1.69768 1.164167,-0.48238 3.485886,-1.32195 5.159375,-1.86571 1.67349,-0.54376 3.75708,-1.25528 4.63021,-1.58116 0.87312,-0.32588 2.54,-0.85873 3.70417,-1.1841 1.16416,-0.32538 2.41432,-0.68429 2.77812,-0.79759 0.3638,-0.1133 1.19724,-0.35339 1.85208,-0.53354 0.65485,-0.18014 2.0836,-0.60041 3.175,-0.93393 1.09141,-0.33352 3.05594,-0.86127 4.36563,-1.17278 1.30969,-0.31151 2.8575,-0.68123 3.43958,-0.82159 0.58209,-0.14035 2.18943,-0.49748 3.57188,-0.79362 1.38244,-0.29613 3.22791,-0.69603 4.10104,-0.88866 1.72079,-0.37964 8.57678,-1.52999 11.77396,-1.97552 7.14423,-0.99555 8.46014,-1.14435 8.83799,-0.99935 0.384,0.14735 0.42242,3.46226 0.42242,36.44374 0,40.56584 0.12836,37.80501 -1.89644,40.79154 -2.80877,4.142899 -7.91453,6.611069 -13.71397,6.629459 -3.12647,0.01 -5.10116,-0.44912 -7.32137,-1.70191 -2.40192,-1.35533 -4.23723,-4.079689 -4.50661,-6.689659 -0.17646,-1.70973 0.80898,-4.38615 2.37086,-6.43916 3.39031,-4.4564 10.70138,-7.01876 16.46857,-5.77185 0.87313,0.18877 1.6768,0.29316 1.78594,0.23198 0.10914,-0.0612 0.19844,-9.33157 0.19844,-20.60084 v -20.4896 h -2.19305 c -2.74445,0 -12.354,0.81582 -18.70903,1.58834 -2.47015,0.30026 -8.90156,1.36392 -10.98021,1.81596 -1.93147,0.42002 -8.45799,1.9033 -8.99583,2.04448 -0.29105,0.0764 -1.36261,0.35623 -2.38125,0.62187 -2.20837,0.57588 -6.980591,2.07931 -7.54063,2.37559 -0.345673,0.18286 -0.419888,3.03943 -0.575254,22.14175 -0.242554,29.822289 -0.214813,29.030009 -1.0736,30.663049 -0.827069,1.57274 -2.557854,3.69409 -3.728254,4.56957 -1.450594,1.08507 -4.236188,2.59971 -5.338516,2.90278 -0.582084,0.16003 -1.548398,0.41946 -2.147364,0.5765 -1.31995,0.34607 -6.012328,0.341 -7.113053,-0.008 z M 99.426637,47.021961 c 1.673493,-0.50921 3.518963,-1.02805 4.101043,-1.15299 1.91566,-0.41116 4.22136,-1.01814 5.0178,-1.32095 0.75191,-0.28587 10.72039,-2.57733 14.56137,-3.34722 2.8851,-0.57829 6.03991,-1.0841 16.93333,-2.71492 1.01864,-0.1525 2.86411,-0.36974 4.10104,-0.48276 l 2.24896,-0.2055 0.0733,-3.90818 c 0.064,-3.41417 0.0186,-3.92914 -0.35882,-4.07398 -0.778,-0.29855 -10.58701,1.09906 -15.85402,2.25892 -0.58208,0.12818 -2.30848,0.49285 -3.83645,0.81038 -5.70917,1.18643 -7.4621,1.66226 -16.27188,4.41691 -1.60073,0.50052 -3.14854,1.02017 -3.43958,1.15478 -0.29104,0.13462 -2.13651,0.78164 -4.10104,1.43783 -1.96453,0.65619 -4.405316,1.53575 -5.423961,1.95458 l -1.852084,0.7615 -0.07669,2.46858 c -0.08781,2.82669 0.01701,3.30045 0.67423,3.04674 0.253434,-0.0978 1.830009,-0.59451 3.503499,-1.10372 z"
       style="fill:url(#linearGradient46);fill-opacity:1;stroke-width:0.264583" />
  </g>
</svg>
